<svg width="182" height="22" viewBox="0 0 182 22" fill="none" xmlns="http://www.w3.org/2000/svg">
<g clip-path="url(#clip0_1_57)">
<path d="M6.62025 10.0352C6.55394 9.95069 6.46637 9.88425 6.366 9.84233C6.26563 9.80041 6.15586 9.78442 6.04729 9.79592C5.93873 9.80741 5.83504 9.84599 5.74626 9.90793C5.65747 9.96987 5.58659 10.0531 5.54046 10.1495L0.069028 20.8068C0.019184 20.9039 -0.00434973 21.0119 0.000661279 21.1203C0.00567229 21.2288 0.0390617 21.3343 0.0976593 21.4266C0.156257 21.519 0.238118 21.5952 0.33547 21.6481C0.432822 21.701 0.542433 21.7288 0.653897 21.7288H8.27259C8.39461 21.7316 8.51483 21.6997 8.61865 21.6372C8.72248 21.5747 8.80544 21.4842 8.85746 21.3766C10.5009 18.0682 9.50492 13.0378 6.62025 10.0352Z" fill="url(#paint0_linear_1_57)"/>
<path d="M10.6333 0.341888C9.26994 2.3855 8.47545 4.73933 8.32776 7.17237C8.18008 9.60541 8.68427 12.0341 9.79085 14.22L13.4639 21.3766C13.5182 21.4824 13.6017 21.5714 13.705 21.6336C13.8083 21.6958 13.9273 21.7288 14.0488 21.7288H21.6661C21.7776 21.7288 21.8872 21.701 21.9845 21.6481C22.0819 21.5952 22.1637 21.519 22.2223 21.4266C22.2809 21.3342 22.3143 21.2288 22.3193 21.1203C22.3243 21.0119 22.3008 20.9039 22.251 20.8068C22.251 20.8068 12.0031 0.837366 11.7455 0.337889C11.6946 0.236219 11.6153 0.150592 11.5167 0.0908284C11.4181 0.0310651 11.3042 -0.000413339 11.1881 4.09843e-06C11.072 0.000421536 10.9584 0.0327179 10.8602 0.0931884C10.7621 0.153659 10.6834 0.239855 10.6333 0.341888Z" fill="#2684FF"/>
<path d="M99.9804 8.88698C99.9804 11.526 101.237 13.6212 106.152 14.5462C109.085 15.1459 109.699 15.6071 109.699 16.5594C109.699 17.4844 109.084 18.0832 107.018 18.0832C104.522 18.0394 102.075 17.3945 99.8966 16.2059V20.5042C101.377 21.2116 103.332 22.0007 106.962 22.0007C112.101 22.0007 114.14 19.7682 114.14 16.4505M114.14 16.4505C114.14 13.3216 112.436 11.8522 107.633 10.8459C104.98 10.2745 104.337 9.70334 104.337 8.88698C104.337 7.85404 105.287 7.41787 107.046 7.41787C109.169 7.41787 111.263 8.04364 113.246 8.91431V4.80586C111.345 3.96284 109.274 3.54457 107.186 3.58166C102.438 3.58166 99.9804 5.5949 99.9804 8.88698" fill="#0052CC"/>
<path d="M165.998 3.85356V21.7288H169.908V8.09795L171.556 11.7162L177.085 21.7288H182.001V3.85356H178.091V15.3895L176.611 12.0428L172.17 3.85356H165.998Z" fill="#0052CC"/>
<path d="M141.131 3.85356H136.858V21.7288H141.131V3.85356Z" fill="#0052CC"/>
<path d="M131.927 16.4505C131.927 13.3216 130.224 11.8522 125.42 10.8459C122.767 10.2745 122.125 9.70334 122.125 8.88698C122.125 7.85404 123.074 7.41787 124.834 7.41787C126.956 7.41787 129.051 8.04364 131.034 8.91431V4.80586C129.132 3.96284 127.062 3.54457 124.973 3.58166C120.225 3.58166 117.768 5.5949 117.768 8.88698C117.768 11.526 119.025 13.6212 123.94 14.5462C126.872 15.1459 127.487 15.6071 127.487 16.5594C127.487 17.4844 126.871 18.0832 124.806 18.0832C122.309 18.0394 119.863 17.3945 117.684 16.2059V20.5042C119.164 21.2116 121.119 22.0007 124.75 22.0007C129.888 22.0007 131.927 19.7682 131.927 16.4505Z" fill="#0052CC"/>
<path d="M66.7869 3.85356V21.7288H75.5695L76.9523 17.8653H71.0875V3.85356H66.7869Z" fill="#0052CC"/>
<path d="M49.4351 3.85356V7.71676H54.1828V21.7288H58.4834V7.71676H63.5663V3.85356H49.4351Z" fill="#0052CC"/>
<path d="M43.1989 3.85356H37.5626L31.1642 21.7288H36.0505L36.9575 18.7183C39.1915 19.3573 41.5669 19.3573 43.8008 18.7183L44.7079 21.7288H49.5951L43.1989 3.85356ZM40.3805 15.4948C39.5846 15.4948 38.7928 15.3838 38.0291 15.1653L40.3805 7.36456L42.732 15.1679C41.9682 15.3856 41.1763 15.4956 40.3805 15.4948Z" fill="#0052CC"/>
<path d="M90.7104 3.85356H85.0745L78.6761 21.7288H83.5634L84.4704 18.7183C86.7044 19.3573 89.0798 19.3573 91.3137 18.7183L92.2208 21.7288H97.108L90.7104 3.85356ZM87.8924 15.4948C87.0965 15.4948 86.3047 15.3838 85.541 15.1653L87.8924 7.36456L90.2439 15.1679C89.4801 15.3856 88.6882 15.4956 87.8924 15.4948Z" fill="#0052CC"/>
<path d="M156.528 3.85356H150.892L144.494 21.7288H149.381L150.288 18.7183C152.522 19.3573 154.897 19.3573 157.131 18.7183L158.038 21.7288H162.926L156.528 3.85356ZM153.708 15.4948C152.912 15.4948 152.121 15.3838 151.357 15.1653L153.708 7.36456L156.06 15.1679C155.296 15.3856 154.504 15.4956 153.708 15.4948Z" fill="#0052CC"/>
</g>
<defs>
<linearGradient id="paint0_linear_1_57" x1="9.61881" y1="11.6799" x2="4.06804" y2="21.5489" gradientUnits="userSpaceOnUse">
<stop stop-color="#0052CC"/>
<stop offset="0.923" stop-color="#2684FF"/>
</linearGradient>
<clipPath id="clip0_1_57">
<rect width="182.001" height="22.0007" fill="white"/>
</clipPath>
</defs>
</svg>
