<svg width="159" height="21" viewBox="0 0 159 21" fill="none" xmlns="http://www.w3.org/2000/svg">
<g clip-path="url(#clip0_1_55)">
<path d="M68.3815 13.0163H78.8054L73.2993 4.34963L63.1764 20.003H58.5732L70.8849 1.22296C71.1532 0.848213 71.5099 0.541612 71.9248 0.328844C72.3398 0.116076 72.8011 0.00333733 73.27 7.29698e-05C73.7388 -0.00319139 74.2017 0.103114 74.6198 0.310082C75.0378 0.51705 75.3989 0.818655 75.6727 1.18963L88.0186 20.003H83.4154L81.2472 16.503H70.7002L68.402 13.0163M116.233 16.503V0.189629H112.321V18.1096C112.32 18.3587 112.371 18.6052 112.471 18.8344C112.571 19.0636 112.717 19.2706 112.902 19.443C113.087 19.6276 113.308 19.7741 113.553 19.8738C113.797 19.9734 114.06 20.0241 114.325 20.023H132.108L134.427 16.523H116.212M51.5487 13.5896C53.3718 13.5896 55.1202 12.8837 56.4093 11.6272C57.6985 10.3708 58.4227 8.66658 58.4227 6.88963C58.4227 5.11268 57.6985 3.40851 56.4093 2.15201C55.1202 0.89552 53.3718 0.189629 51.5487 0.189629H34.4491V20.003H38.3546V3.6963H51.3093C52.1818 3.6963 53.0186 4.03414 53.6356 4.63551C54.2526 5.23687 54.5992 6.0525 54.5992 6.90296C54.5992 7.75342 54.2526 8.56905 53.6356 9.17042C53.0186 9.77178 52.1818 10.1096 51.3093 10.1096H40.2903L51.9591 20.003H57.6293L49.7908 13.5896H51.5487ZM10.4276 20.003H22.24C24.8891 19.936 27.4066 18.8632 29.256 17.0133C31.1054 15.1633 32.1403 12.6825 32.1403 10.0996C32.1403 7.51672 31.1054 5.03594 29.256 3.18601C27.4066 1.33608 24.8891 0.263294 22.24 0.196296H10.4276C9.07114 0.161989 7.72134 0.392773 6.45782 0.875038C5.1943 1.3573 4.04265 2.08128 3.07079 3.00429C2.09892 3.92729 1.32651 5.03063 0.79911 6.24923C0.271711 7.46784 0 8.77704 0 10.0996C0 11.4222 0.271711 12.7314 0.79911 13.95C1.32651 15.1686 2.09892 16.272 3.07079 17.195C4.04265 18.118 5.1943 18.842 6.45782 19.3242C7.72134 19.8065 9.07114 20.0373 10.4276 20.003ZM21.9733 16.5163H10.6875C8.98006 16.4626 7.36093 15.7638 6.17256 14.5675C4.98419 13.3713 4.31974 11.7714 4.31974 10.1063C4.31974 8.44117 4.98419 6.84133 6.17256 5.64508C7.36093 4.44883 8.98006 3.74997 10.6875 3.6963H21.9733C22.8547 3.66858 23.7329 3.81388 24.5557 4.12354C25.3784 4.4332 26.1289 4.90091 26.7625 5.49887C27.3961 6.09683 27.8999 6.81284 28.2439 7.60434C28.588 8.39584 28.7653 9.24668 28.7653 10.1063C28.7653 10.9659 28.588 11.8168 28.2439 12.6083C27.8999 13.3998 27.3961 14.1158 26.7625 14.7137C26.1289 15.3117 25.3784 15.7794 24.5557 16.0891C23.7329 16.3987 22.8547 16.544 21.9733 16.5163ZM96.1785 20.003H108.237L110.522 16.5163H96.4453C95.5638 16.544 94.6856 16.3987 93.8629 16.0891C93.0401 15.7794 92.2897 15.3117 91.6561 14.7137C91.0225 14.1158 90.5187 13.3998 90.1746 12.6083C89.8306 11.8168 89.6533 10.9659 89.6533 10.1063C89.6533 9.24668 89.8306 8.39584 90.1746 7.60434C90.5187 6.81284 91.0225 6.09683 91.6561 5.49887C92.2897 4.90091 93.0401 4.4332 93.8629 4.12354C94.6856 3.81388 95.5638 3.66858 96.4453 3.6963H107.902L110.214 0.196296H96.1785C94.822 0.161989 93.4722 0.392773 92.2087 0.875038C90.9452 1.3573 89.7936 2.08128 88.8217 3.00429C87.8498 3.92729 87.0774 5.03063 86.55 6.24923C86.0226 7.46784 85.7509 8.77704 85.7509 10.0996C85.7509 11.4222 86.0226 12.7314 86.55 13.95C87.0774 15.1686 87.8498 16.272 88.8217 17.195C89.7936 18.118 90.9452 18.842 92.2087 19.3242C93.4722 19.8065 94.822 20.0373 96.1785 20.003ZM143.968 16.5163C142.535 16.5168 141.141 16.0613 139.998 15.219C138.855 14.3767 138.025 13.1936 137.635 11.8496H154.338L156.636 8.35629H137.635C138.024 7.01173 138.854 5.82804 139.997 4.98557C141.14 4.14309 142.535 3.688 143.968 3.68963H155.432L157.723 0.189629H143.702C141.053 0.256627 138.535 1.32941 136.686 3.17934C134.836 5.02927 133.801 7.51005 133.801 10.093C133.801 12.6759 134.836 15.1567 136.686 17.0066C138.535 18.8565 141.053 19.9293 143.702 19.9963H155.76L158.052 16.5096H143.962" fill="#C74634"/>
</g>
<defs>
<clipPath id="clip0_1_55">
<rect width="158.052" height="20.023" fill="white"/>
</clipPath>
</defs>
</svg>
