<svg width="75" height="24" viewBox="0 0 75 24" fill="none" xmlns="http://www.w3.org/2000/svg">
<rect width="75" height="24" rx="5" fill="white"/>
<path d="M10.1888 11.769H13.4348C13.4348 11.769 15.2588 11.7983 15.2588 10.0065V7.04325C15.2588 7.04325 15.5355 5.25 11.952 5.25C8.5215 5.25 8.73525 6.73725 8.73525 6.73725L8.73975 8.2785H12.012V8.74125H7.44C7.44 8.74125 5.24475 8.49225 5.24475 11.9528C5.24475 15.4132 7.161 15.2902 7.161 15.2902H8.304V13.6845C8.304 13.6845 8.24175 11.769 10.1888 11.769ZM10.1468 7.464C9.99061 7.464 9.84085 7.40197 9.73044 7.29156C9.62003 7.18115 9.558 7.0314 9.558 6.87525C9.558 6.7191 9.62003 6.56935 9.73044 6.45894C9.84085 6.34853 9.99061 6.2865 10.1468 6.2865C10.3029 6.2865 10.4526 6.34853 10.5631 6.45894C10.6735 6.56935 10.7355 6.7191 10.7355 6.87525C10.7355 7.0314 10.6735 7.18115 10.5631 7.29156C10.4526 7.40197 10.3029 7.464 10.1468 7.464Z" fill="#064EA4"/>
<path d="M16.839 8.649H15.696V10.2548C15.696 10.2548 15.7583 12.1703 13.8113 12.1703H10.5653C10.5653 12.1703 8.74125 12.1403 8.74125 13.9328V16.896C8.74125 16.896 8.4645 18.6893 12.048 18.6893C15.4778 18.6893 15.264 17.202 15.264 17.202L15.2595 15.6615H11.9873V15.1988H16.56C16.56 15.1988 18.7553 15.4478 18.7553 11.9873C18.7553 8.52675 16.839 8.649 16.839 8.649ZM13.8533 16.476C14.0094 16.476 14.1592 16.538 14.2696 16.6484C14.38 16.7589 14.442 16.9086 14.442 17.0648C14.442 17.2209 14.38 17.3706 14.2696 17.4811C14.1592 17.5915 14.0094 17.6535 13.8533 17.6535C13.6971 17.6535 13.5474 17.5915 13.4369 17.4811C13.3265 17.3706 13.2645 17.2209 13.2645 17.0648C13.2645 16.9086 13.3265 16.7589 13.4369 16.6484C13.5474 16.538 13.6971 16.476 13.8533 16.476Z" fill="#064EA4"/>
<path d="M29.422 12.292H32.026C32.782 12.3013 33.3327 12.1473 33.678 11.83C34.0327 11.5127 34.21 11.0553 34.21 10.458C34.21 9.86067 34.0327 9.408 33.678 9.1C33.3327 8.78267 32.782 8.624 32.026 8.624H29.422V12.292ZM28.092 7.504H32.474C33.482 7.504 34.2427 7.76533 34.756 8.288C35.2787 8.80133 35.54 9.52467 35.54 10.458C35.54 11.3913 35.2787 12.1193 34.756 12.642C34.2427 13.1647 33.482 13.4213 32.474 13.412H29.422V17.5H28.092V7.504ZM39.8161 18.466C39.6761 18.8207 39.5361 19.1193 39.3961 19.362C39.2655 19.6047 39.1161 19.8007 38.9481 19.95C38.7895 20.1087 38.6075 20.2207 38.4021 20.286C38.2061 20.3607 37.9775 20.398 37.7161 20.398C37.5761 20.398 37.4361 20.3887 37.2961 20.37C37.1561 20.3513 37.0208 20.3187 36.8901 20.272V19.18C36.9928 19.2267 37.1095 19.264 37.2401 19.292C37.3801 19.3293 37.4968 19.348 37.5901 19.348C37.8328 19.348 38.0335 19.2873 38.1921 19.166C38.3601 19.054 38.4861 18.8907 38.5701 18.676L39.0601 17.458L36.1901 10.262H37.5341L39.6481 16.184H39.6761L41.7061 10.262H42.9661L39.8161 18.466ZM45.6261 10.262H47.0681V11.312H45.6261V15.806C45.6261 15.946 45.6355 16.058 45.6541 16.142C45.6821 16.226 45.7288 16.2913 45.7941 16.338C45.8595 16.3847 45.9481 16.4173 46.0601 16.436C46.1815 16.4453 46.3355 16.45 46.5221 16.45H47.0681V17.5H46.1581C45.8501 17.5 45.5841 17.4813 45.3601 17.444C45.1455 17.3973 44.9681 17.318 44.8281 17.206C44.6975 17.094 44.5995 16.9353 44.5341 16.73C44.4688 16.5247 44.4361 16.254 44.4361 15.918V11.312H43.2041V10.262H44.4361V8.092H45.6261V10.262ZM48.3901 7.504H49.5801V11.326H49.6081C49.7015 11.102 49.8321 10.9153 50.0001 10.766C50.1681 10.6073 50.3548 10.4813 50.5601 10.388C50.7748 10.2853 50.9941 10.2107 51.2181 10.164C51.4515 10.1173 51.6755 10.094 51.8901 10.094C52.3661 10.094 52.7628 10.1593 53.0801 10.29C53.3975 10.4207 53.6541 10.6027 53.8501 10.836C54.0461 11.0693 54.1815 11.3493 54.2561 11.676C54.3401 11.9933 54.3821 12.348 54.3821 12.74V17.5H53.1921V12.6C53.1921 12.152 53.0615 11.7973 52.8001 11.536C52.5388 11.2747 52.1795 11.144 51.7221 11.144C51.3581 11.144 51.0408 11.2 50.7701 11.312C50.5088 11.424 50.2895 11.5827 50.1121 11.788C49.9348 11.9933 49.7995 12.236 49.7061 12.516C49.6221 12.7867 49.5801 13.0853 49.5801 13.412V17.5H48.3901V7.504ZM57.0374 13.888C57.0374 14.3267 57.0934 14.7187 57.2054 15.064C57.3268 15.4 57.4901 15.6847 57.6954 15.918C57.9008 16.142 58.1388 16.3147 58.4094 16.436C58.6894 16.5573 58.9834 16.618 59.2914 16.618C59.5994 16.618 59.8888 16.5573 60.1594 16.436C60.4394 16.3147 60.6821 16.142 60.8874 15.918C61.0928 15.6847 61.2514 15.4 61.3634 15.064C61.4848 14.7187 61.5454 14.3267 61.5454 13.888C61.5454 13.4493 61.4848 13.062 61.3634 12.726C61.2514 12.3807 61.0928 12.0913 60.8874 11.858C60.6821 11.6247 60.4394 11.4473 60.1594 11.326C59.8888 11.2047 59.5994 11.144 59.2914 11.144C58.9834 11.144 58.6894 11.2047 58.4094 11.326C58.1388 11.4473 57.9008 11.6247 57.6954 11.858C57.4901 12.0913 57.3268 12.3807 57.2054 12.726C57.0934 13.062 57.0374 13.4493 57.0374 13.888ZM55.7774 13.888C55.7774 13.356 55.8521 12.8613 56.0014 12.404C56.1508 11.9373 56.3748 11.536 56.6734 11.2C56.9721 10.8547 57.3408 10.584 57.7794 10.388C58.2181 10.192 58.7221 10.094 59.2914 10.094C59.8701 10.094 60.3741 10.192 60.8034 10.388C61.2421 10.584 61.6108 10.8547 61.9094 11.2C62.2081 11.536 62.4321 11.9373 62.5814 12.404C62.7308 12.8613 62.8054 13.356 62.8054 13.888C62.8054 14.42 62.7308 14.9147 62.5814 15.372C62.4321 15.8293 62.2081 16.2307 61.9094 16.576C61.6108 16.912 61.2421 17.178 60.8034 17.374C60.3741 17.5607 59.8701 17.654 59.2914 17.654C58.7221 17.654 58.2181 17.5607 57.7794 17.374C57.3408 17.178 56.9721 16.912 56.6734 16.576C56.3748 16.2307 56.1508 15.8293 56.0014 15.372C55.8521 14.9147 55.7774 14.42 55.7774 13.888ZM64.2085 10.262H65.3285V11.41H65.3565C65.8512 10.5327 66.6352 10.094 67.7085 10.094C68.1845 10.094 68.5812 10.1593 68.8985 10.29C69.2158 10.4207 69.4725 10.6027 69.6685 10.836C69.8645 11.0693 69.9998 11.3493 70.0745 11.676C70.1585 11.9933 70.2005 12.348 70.2005 12.74V17.5H69.0105V12.6C69.0105 12.152 68.8798 11.7973 68.6185 11.536C68.3572 11.2747 67.9978 11.144 67.5405 11.144C67.1765 11.144 66.8592 11.2 66.5885 11.312C66.3272 11.424 66.1078 11.5827 65.9305 11.788C65.7532 11.9933 65.6178 12.236 65.5245 12.516C65.4405 12.7867 65.3985 13.0853 65.3985 13.412V17.5H64.2085V10.262Z" fill="#064EA4"/>
</svg>
